<svg xmlns="http://www.w3.org/2000/svg" width="23.616" height="23.616" viewBox="0 0 23.616 23.616"><defs><style>.a{fill:#3d5e7f;}</style></defs><g transform="translate(-222 117.996)"><path class="a" d="M31.616,19.808A11.808,11.808,0,1,1,19.808,8,11.808,11.808,0,0,1,31.616,19.808ZM18.442,26.06,27.2,17.3a.762.762,0,0,0,0-1.077l-1.077-1.077a.762.762,0,0,0-1.077,0L17.9,22.289l-3.336-3.336a.762.762,0,0,0-1.077,0l-1.077,1.077a.762.762,0,0,0,0,1.077l4.952,4.952a.762.762,0,0,0,1.077,0Z" transform="translate(214 -125.996)"/></g></svg>