<svg xmlns="http://www.w3.org/2000/svg" width="34.944" height="34.944" viewBox="0 0 34.944 34.944"><defs><style>.a{fill:#40403e;}.b{fill:#fff;}</style></defs><ellipse class="a" cx="17.472" cy="17.472" rx="17.472" ry="17.472"/><path class="b" d="M11.683,88.472,16.5,93.289a1.514,1.514,0,0,1,0,2.141L15.43,96.5a1.514,1.514,0,0,1-2.141,0L8.472,91.683,3.655,96.5a1.514,1.514,0,0,1-2.141,0L.443,95.43a1.514,1.514,0,0,1,0-2.141L5.26,88.472.443,83.655a1.514,1.514,0,0,1,0-2.141l1.071-1.071a1.514,1.514,0,0,1,2.141,0L8.472,85.26l4.817-4.817a1.514,1.514,0,0,1,2.141,0L16.5,81.514a1.514,1.514,0,0,1,0,2.141Z" transform="translate(9 -71)"/></svg>