<svg xmlns="http://www.w3.org/2000/svg" width="115.587" height="92.479" viewBox="0 0 115.587 92.479"><path d="M57.841,69.359H23.162v-28.9H11.6V86.7a5.774,5.774,0,0,0,5.78,5.78H63.621A5.774,5.774,0,0,0,69.4,86.7V40.459H57.841Zm56.824-43.674L99.258,2.565A5.812,5.812,0,0,0,94.435,0H21.247a5.756,5.756,0,0,0-4.8,2.565L1.035,25.684a5.78,5.78,0,0,0,4.8,8.995H109.86A5.791,5.791,0,0,0,114.665,25.684ZM92.52,89.589a2.9,2.9,0,0,0,2.89,2.89h5.78a2.9,2.9,0,0,0,2.89-2.89V40.459H92.52Z" transform="translate(-0.051)" fill="#6ba6e1"/></svg>