<svg xmlns="http://www.w3.org/2000/svg" width="135.688" height="81.412" viewBox="0 0 135.688 81.412"><defs><style>.a{fill:#61897e;}</style></defs><path class="a" d="M67.844,80.961c-11.241,0-20.353,10.63-20.353,23.745s9.112,23.745,20.353,23.745S88.2,117.823,88.2,104.706,79.085,80.961,67.844,80.961Zm8.48,35.618a1.7,1.7,0,0,1-1.7,1.7H61.059a1.7,1.7,0,0,1-1.7-1.7v-3.392a1.7,1.7,0,0,1,1.7-1.7h3.392V99.737l-.1.066A1.694,1.694,0,0,1,62,99.332L60.118,96.51a1.694,1.694,0,0,1,.471-2.351l3.25-2.167a5.086,5.086,0,0,1,2.822-.854H69.54a1.7,1.7,0,0,1,1.7,1.7v18.657h3.392a1.7,1.7,0,0,1,1.7,1.7ZM128.9,64H6.784A6.785,6.785,0,0,0,0,70.784v67.844a6.785,6.785,0,0,0,6.784,6.784H128.9a6.785,6.785,0,0,0,6.784-6.784V70.784A6.785,6.785,0,0,0,128.9,64Zm-3.392,57.667a13.568,13.568,0,0,0-13.569,13.569h-88.2a13.568,13.568,0,0,0-13.569-13.569V87.745A13.568,13.568,0,0,0,23.745,74.177h88.2a13.568,13.568,0,0,0,13.569,13.569Z" transform="translate(0 -64)"/></svg>