<svg xmlns="http://www.w3.org/2000/svg" width="89.299" height="89.299" viewBox="0 0 89.299 89.299"><defs><style>.a{fill:#9c7e5c;}</style></defs><path class="a" d="M79.731,32H9.568A9.568,9.568,0,0,0,0,41.568v70.163A9.568,9.568,0,0,0,9.568,121.3H79.731a9.568,9.568,0,0,0,9.568-9.568V41.568A9.568,9.568,0,0,0,79.731,32ZM35.5,77.866C17.427,64.747,17.611,64.714,12.757,60.936V55.919a4.784,4.784,0,0,1,4.784-4.784H71.758a4.784,4.784,0,0,1,4.784,4.784v5.016c-4.858,3.781-4.671,3.812-22.747,16.931-2.093,1.526-6.257,5.206-9.146,5.161C41.759,83.071,37.6,79.395,35.5,77.866ZM76.542,69.03V97.38a4.784,4.784,0,0,1-4.784,4.784H17.541a4.784,4.784,0,0,1-4.784-4.784V69.03c2.782,2.152,6.643,5.03,19,14,2.823,2.061,7.569,6.407,12.9,6.38,5.359.027,10.173-4.393,12.9-6.383C69.9,74.06,73.76,71.181,76.542,69.03Z" transform="translate(0 -32)"/></svg>