<svg xmlns="http://www.w3.org/2000/svg" width="96.503" height="96.503" viewBox="0 0 96.503 96.503"><defs><style>.a{fill:#61897e;}</style></defs><path class="a" d="M48.251,8A48.251,48.251,0,1,0,96.5,56.251,48.243,48.243,0,0,0,48.251,8Zm0,87.164A38.912,38.912,0,1,1,87.164,56.251,38.952,38.952,0,0,1,48.251,95.164Zm16.343-27.9a21.255,21.255,0,0,1-32.686,0,4.67,4.67,0,0,0-7.179,5.973,30.629,30.629,0,0,0,47.045,0,4.67,4.67,0,0,0-7.179-5.973ZM26.558,47.5c1.5-2.665,3.736-4.2,6.129-4.2s4.631,1.537,6.129,4.2L40.663,50.8a1.541,1.541,0,0,0,1.809.72,1.559,1.559,0,0,0,1.109-1.615c-.642-8.191-6.265-13.892-10.9-13.892s-10.253,5.7-10.9,13.892A1.574,1.574,0,0,0,22.9,51.524a1.594,1.594,0,0,0,1.809-.72ZM63.816,36.017c-4.631,0-10.253,5.7-10.9,13.892a1.565,1.565,0,0,0,2.918.895L57.688,47.5c1.5-2.665,3.736-4.2,6.129-4.2s4.631,1.537,6.129,4.2L71.793,50.8a1.541,1.541,0,0,0,1.809.72,1.559,1.559,0,0,0,1.109-1.615C74.07,41.718,68.447,36.017,63.816,36.017Z" transform="translate(0 -8)"/></svg>