<svg xmlns="http://www.w3.org/2000/svg" width="83" height="83" viewBox="0 0 83 83"><defs><style>.a{fill:#808ca6;}.b{fill:#fff;}</style></defs><g transform="translate(-210.69)"><circle class="a" cx="41.5" cy="41.5" r="41.5" transform="translate(210.69)"/><path class="b" d="M20.563,23.5A11.75,11.75,0,1,0,8.813,11.75,11.749,11.749,0,0,0,20.563,23.5Zm8.225,2.937H27.254a15.979,15.979,0,0,1-13.384,0H12.338A12.341,12.341,0,0,0,0,38.775v3.819A4.407,4.407,0,0,0,4.406,47H36.719a4.407,4.407,0,0,0,4.406-4.406V38.775A12.341,12.341,0,0,0,28.788,26.437Z" transform="translate(231.69 18)"/></g></svg>