<svg xmlns="http://www.w3.org/2000/svg" width="31.5" height="36" viewBox="0 0 31.5 36"><defs><style>.a{fill:#68b7a1;}</style></defs><path class="a" d="M13.275,36a5.889,5.889,0,0,0,5.85-5.85V27.644a6.55,6.55,0,0,0,1.551-.558,6.529,6.529,0,0,0,4.415-1.124c3.69-.08,6.409-2.63,6.409-7.027v-1.5c0-4.223-2.812-6.927-2.812-8.944V8.305A2.379,2.379,0,0,0,29.25,6.75V2.25A2.146,2.146,0,0,0,27.225,0h-16.2A2.146,2.146,0,0,0,9,2.25v4.5a2.379,2.379,0,0,0,.563,1.555v.188c0,.49-.435,1.045-1.664,2.122l-.01.009-.01.009A17.318,17.318,0,0,1,5.54,12.452C3.413,13.767,0,14.589,0,17.775c0,4,2.481,6.469,5.85,6.469a8.122,8.122,0,0,0,1.575-.153V30.15A5.928,5.928,0,0,0,13.275,36Zm0-3.375A2.559,2.559,0,0,1,10.8,30.15V19.012c-1.218,0-2.475,1.856-4.95,1.856-1.856,0-2.475-1.45-2.475-3.094,0-.618,2.3-1.438,3.945-2.456a20.424,20.424,0,0,0,2.8-2.166C11.415,12.021,12.7,10.775,12.907,9H25.335c.265,3.009,2.79,5.239,2.79,8.438v1.5c0,2.849-1.561,4.017-4.312,3.558a2.918,2.918,0,0,1-3.771.909,3.172,3.172,0,0,1-4.293.348v6.4A2.518,2.518,0,0,1,13.275,32.625ZM23.063,4.5A1.688,1.688,0,1,1,24.75,6.187,1.687,1.687,0,0,1,23.063,4.5Z"/></svg>