<svg xmlns="http://www.w3.org/2000/svg" width="89.299" height="89.299" viewBox="0 0 89.299 89.299"><defs><style>.a{fill:#9c7e5c;}</style></defs><path class="a" d="M79.731,32H9.568A9.57,9.57,0,0,0,0,41.568v70.163A9.57,9.57,0,0,0,9.568,121.3H79.731a9.57,9.57,0,0,0,9.568-9.568V41.568A9.57,9.57,0,0,0,79.731,32ZM69.984,63.653c.04.558.04,1.136.04,1.694,0,17.282-13.156,37.195-37.195,37.195a37.023,37.023,0,0,1-20.072-5.86,27.539,27.539,0,0,0,3.149.159A26.21,26.21,0,0,0,32.132,91.26a13.09,13.09,0,0,1-12.219-9.069,14.09,14.09,0,0,0,5.9-.239A13.074,13.074,0,0,1,15.348,69.115v-.159a13.064,13.064,0,0,0,5.9,1.654,13.045,13.045,0,0,1-5.82-10.883,12.91,12.91,0,0,1,1.774-6.6A37.12,37.12,0,0,0,44.151,66.8a13.1,13.1,0,0,1,22.3-11.94,25.617,25.617,0,0,0,8.292-3.149,13.039,13.039,0,0,1-5.741,7.2,26.016,26.016,0,0,0,7.535-2.033A27.517,27.517,0,0,1,69.984,63.653Z" transform="translate(0 -32)"/></svg>