<svg xmlns="http://www.w3.org/2000/svg" width="89.299" height="89.299" viewBox="0 0 89.299 89.299"><defs><style>.a{fill:#9c7e5c;}</style></defs><path class="a" d="M79.731,32H9.568A9.568,9.568,0,0,0,0,41.568v70.163A9.568,9.568,0,0,0,9.568,121.3H79.731a9.568,9.568,0,0,0,9.568-9.568V41.568A9.568,9.568,0,0,0,79.731,32ZM76.464,93.267l-2.99,12.956a2.99,2.99,0,0,1-2.912,2.318A57.81,57.81,0,0,1,12.757,50.737a3.129,3.129,0,0,1,2.318-2.912l12.956-2.99a3.633,3.633,0,0,1,.672-.078,3.243,3.243,0,0,1,2.749,1.812l5.98,13.953a3.568,3.568,0,0,1,.241,1.178,3.389,3.389,0,0,1-1.1,2.314l-7.553,6.179A46.226,46.226,0,0,0,51.106,92.275l6.179-7.553a3.389,3.389,0,0,1,2.314-1.1,3.558,3.558,0,0,1,1.178.241l13.953,5.98A3.239,3.239,0,0,1,76.542,92.6,3.471,3.471,0,0,1,76.464,93.267Z" transform="translate(0 -32)"/></svg>