<svg xmlns="http://www.w3.org/2000/svg" xmlns:xlink="http://www.w3.org/1999/xlink" width="64.944" height="64.944" viewBox="0 0 64.944 64.944"><defs><style>.a{fill:#d96c6c;}.b{fill:#fff;}.c{filter:url(#a);}</style><filter id="a" x="0" y="0" width="64.944" height="64.944" filterUnits="userSpaceOnUse"><feOffset dy="3" input="SourceAlpha"/><feGaussianBlur stdDeviation="5" result="b"/><feFlood flood-opacity="0.451"/><feComposite operator="in" in2="b"/><feComposite in="SourceGraphic"/></filter></defs><g transform="translate(15 12)"><g class="c" transform="matrix(1, 0, 0, 1, -15, -12)"><ellipse class="a" cx="17.472" cy="17.472" rx="17.472" ry="17.472" transform="translate(15 12)"/></g><path class="b" d="M11.683,88.472,16.5,83.655a1.514,1.514,0,0,0,0-2.141L15.43,80.443a1.514,1.514,0,0,0-2.141,0L8.472,85.26,3.655,80.443a1.514,1.514,0,0,0-2.141,0L.443,81.514a1.514,1.514,0,0,0,0,2.141L5.26,88.472.443,93.289a1.514,1.514,0,0,0,0,2.141L1.514,96.5a1.514,1.514,0,0,0,2.141,0l4.817-4.817L13.289,96.5a1.514,1.514,0,0,0,2.141,0L16.5,95.43a1.514,1.514,0,0,0,0-2.141Z" transform="translate(9 -71)"/></g></svg>