<svg xmlns="http://www.w3.org/2000/svg" width="41.143" height="36" viewBox="0 0 41.143 36"><path d="M1.469,66.612h38.2a1.469,1.469,0,0,0,1.469-1.469V61.469A1.469,1.469,0,0,0,39.673,60H1.469A1.469,1.469,0,0,0,0,61.469v3.673A1.469,1.469,0,0,0,1.469,66.612Zm0,14.694h38.2a1.469,1.469,0,0,0,1.469-1.469V76.163a1.469,1.469,0,0,0-1.469-1.469H1.469A1.469,1.469,0,0,0,0,76.163v3.673A1.469,1.469,0,0,0,1.469,81.306ZM1.469,96h38.2a1.469,1.469,0,0,0,1.469-1.469V90.857a1.469,1.469,0,0,0-1.469-1.469H1.469A1.469,1.469,0,0,0,0,90.857v3.673A1.469,1.469,0,0,0,1.469,96Z" transform="translate(0 -60)" fill="#fff"/></svg>