<svg xmlns="http://www.w3.org/2000/svg" width="20.747" height="13.831" viewBox="0 0 20.747 13.831"><defs><style>.a{fill:#fff;}</style></defs><path class="a" d="M10.374,66.881a4,4,0,0,0-1.125.18,2,2,0,0,1,.261.972,2.017,2.017,0,0,1-2.017,2.017,2,2,0,0,1-.972-.261,4.024,4.024,0,1,0,3.854-2.909ZM20.622,70.39A11.552,11.552,0,0,0,10.374,64,11.554,11.554,0,0,0,.126,70.39a1.165,1.165,0,0,0,0,1.051,11.552,11.552,0,0,0,10.248,6.39,11.554,11.554,0,0,0,10.248-6.39,1.165,1.165,0,0,0,0-1.051ZM10.374,76.1A9.8,9.8,0,0,1,1.8,70.916a9.8,9.8,0,0,1,8.57-5.187,9.8,9.8,0,0,1,8.57,5.187A9.8,9.8,0,0,1,10.374,76.1Z" transform="translate(-0.001 -64)"/></svg>