<svg xmlns="http://www.w3.org/2000/svg" width="89.348" height="89.348" viewBox="0 0 89.348 89.348"><defs><style>.a{fill:#9c7e5c;}</style></defs><path class="a" d="M79.775,32H9.573A9.573,9.573,0,0,0,0,41.573v70.2a9.573,9.573,0,0,0,9.573,9.573H36.946V90.972H24.381v-14.3H36.946v-10.9c0-12.4,7.379-19.242,18.681-19.242A76.118,76.118,0,0,1,66.7,47.5V59.666H60.464c-6.145,0-8.061,3.813-8.061,7.724v9.284H66.12l-2.194,14.3H52.4v30.376H79.775a9.573,9.573,0,0,0,9.573-9.573v-70.2A9.573,9.573,0,0,0,79.775,32Z" transform="translate(0 -32)"/></svg>