<svg xmlns="http://www.w3.org/2000/svg" width="110.878" height="88.703" viewBox="0 0 110.878 88.703"><defs><style>.a{fill:#3d5e7f;}</style></defs><path class="a" d="M108.106,60.983h-2.772V42.255a8.316,8.316,0,0,0-2.443-5.873L85.584,19.075a8.316,8.316,0,0,0-5.873-2.443h-7.64V8.316A8.318,8.318,0,0,0,63.755,0H19.4a8.318,8.318,0,0,0-8.316,8.316v8.316h-9.7A1.39,1.39,0,0,0,0,18.018V20.79a1.39,1.39,0,0,0,1.386,1.386H48.509A1.39,1.39,0,0,1,49.9,23.562v2.772a1.39,1.39,0,0,1-1.386,1.386H6.93a1.39,1.39,0,0,0-1.386,1.386v2.772A1.39,1.39,0,0,0,6.93,33.264H42.965a1.39,1.39,0,0,1,1.386,1.386v2.772a1.39,1.39,0,0,1-1.386,1.386H1.386A1.39,1.39,0,0,0,0,40.193v2.772a1.39,1.39,0,0,0,1.386,1.386H37.421a1.39,1.39,0,0,1,1.386,1.386v2.772A1.39,1.39,0,0,1,37.421,49.9H11.088V72.071a16.632,16.632,0,1,0,33.264,0H66.527a16.632,16.632,0,1,0,33.264,0h8.316a2.78,2.78,0,0,0,2.772-2.772V63.755A2.78,2.78,0,0,0,108.106,60.983ZM27.72,80.387a8.316,8.316,0,1,1,8.316-8.316A8.318,8.318,0,0,1,27.72,80.387Zm55.439,0a8.316,8.316,0,1,1,8.316-8.316A8.318,8.318,0,0,1,83.159,80.387Zm13.86-36.035H72.071v-19.4h7.64L97.019,42.255Z"/></svg>