<svg xmlns="http://www.w3.org/2000/svg" width="39" height="39" viewBox="0 0 39 39"><path d="M26.892,99.5,37.98,88.413a3.485,3.485,0,0,0,0-4.928L35.515,81.02a3.485,3.485,0,0,0-4.928,0L19.5,92.108,8.413,81.02a3.485,3.485,0,0,0-4.928,0L1.02,83.485a3.485,3.485,0,0,0,0,4.928L12.108,99.5,1.02,110.587a3.485,3.485,0,0,0,0,4.928l2.464,2.464a3.485,3.485,0,0,0,4.928,0L19.5,106.892,30.587,117.98a3.485,3.485,0,0,0,4.928,0l2.464-2.464a3.485,3.485,0,0,0,0-4.928Z" transform="translate(0 -80)" fill="#fff"/></svg>