<svg xmlns="http://www.w3.org/2000/svg" width="101.867" height="101.871" viewBox="0 0 101.867 101.871"><defs><style>.a{fill:#556273;}</style></defs><path class="a" d="M99.652,78.723l-23.3-23.3a14.772,14.772,0,0,0-16.99-2.765L38.158,31.454V19.1L12.693,0-.04,12.733,19.059,38.2H31.413L52.621,59.406A14.8,14.8,0,0,0,55.387,76.4l23.3,23.3a7.4,7.4,0,0,0,10.485,0L99.652,89.208a7.433,7.433,0,0,0,0-10.485Zm-33.7-33.96a20.932,20.932,0,0,1,14.9,6.167l3.86,3.86a28.161,28.161,0,0,0,8.714-5.869,28.611,28.611,0,0,0,7.54-27.2,2.381,2.381,0,0,0-4-1.094l-14.8,14.8L68.656,33.184,66.408,19.676l14.8-14.8A2.4,2.4,0,0,0,80.076.855,28.659,28.659,0,0,0,52.9,8.4a28.193,28.193,0,0,0-8.2,20.611L61.037,45.34a21.673,21.673,0,0,1,4.914-.577ZM45.28,61.077,34,49.8,3.68,80.136a12.731,12.731,0,0,0,18,18l24.59-24.59a21.364,21.364,0,0,1-.995-12.474ZM12.693,93.9a4.775,4.775,0,1,1,4.775-4.775A4.789,4.789,0,0,1,12.693,93.9Z" transform="translate(0.05)"/></svg>